<?xml version="1.0" encoding="utf-8"?>
<!-- Generator: Adobe Illustrator 21.0.0, SVG Export Plug-In . SVG Version: 6.00 Build 0)  -->
<svg version="1.1" id="Layer_1" xmlns="http://www.w3.org/2000/svg" xmlns:xlink="http://www.w3.org/1999/xlink" x="0px" y="0px"
	 viewBox="0 0 121 31" style="enable-background:new 0 0 121 31;" xml:space="preserve">
<style type="text/css">
	.st0{fill:#5C3575;}
</style>
<g>
	<path class="st0" d="M91.5,10.5L91.5,10.5c-0.2,0.7-0.4,1.5-0.7,2.2l-1.2,3.5h3.7l-1.2-3.5C91.9,11.9,91.7,11.2,91.5,10.5z"/>
	<path class="st0" d="M48.5,10.5L48.5,10.5c-0.2,0.7-0.4,1.5-0.7,2.2l-1.2,3.5h3.7l-1.2-3.5C48.8,11.9,48.6,11.2,48.5,10.5z"/>
	<path class="st0" d="M58.5,10.2c-0.8,0-1.3,0.1-1.6,0.1v4.5h1.6c1.7,0,2.8-0.9,2.8-2.3C61.4,10.9,60.2,10.3,58.5,10.2z"/>
	<path class="st0" d="M106.4,0.1H14.6c-8,0-14.4,6.4-14.4,14.4v1.9c0,8,6.4,14.4,14.4,14.4h91.8c8,0,14.4-6.4,14.4-14.4v-1.9
		C120.8,6.6,114.4,0.1,106.4,0.1z M115.5,7c0.1-0.1,0.4-0.1,0.5,0.1c0.7,0.9,1.3,2,1.6,3.1c0.1,0.2,0,0.4-0.2,0.4c0,0-0.1,0-0.1,0
		c-0.1,0-0.3-0.1-0.3-0.2c-0.4-1-0.9-2-1.6-2.9C115.3,7.4,115.4,7.2,115.5,7z M103.5,2.4h3.1c0.1,0,0.2,0,0.3,0
		c0.2,0,0.3,0.2,0.3,0.3c0,0.2-0.2,0.3-0.3,0.3c0,0,0,0,0,0l-3.4,0c-0.2,0-0.3-0.2-0.3-0.3S103.4,2.4,103.5,2.4z M89.9,2.4h3.4
		c0.2,0,0.3,0.2,0.3,0.3s-0.2,0.3-0.3,0.3h-3.4c-0.2,0-0.3-0.2-0.3-0.3S89.7,2.4,89.9,2.4z M83.1,2.4h3.4c0.2,0,0.3,0.2,0.3,0.3
		s-0.2,0.3-0.3,0.3h-3.4c-0.2,0-0.3-0.2-0.3-0.3S82.9,2.4,83.1,2.4z M76.3,2.4h3.4c0.2,0,0.3,0.2,0.3,0.3s-0.2,0.3-0.3,0.3h-3.4
		c-0.2,0-0.3-0.2-0.3-0.3S76.1,2.4,76.3,2.4z M69.4,2.4h3.4c0.2,0,0.3,0.2,0.3,0.3S73,3.1,72.9,3.1h-3.4c-0.2,0-0.3-0.2-0.3-0.3
		S69.3,2.4,69.4,2.4z M62.6,2.4H66c0.2,0,0.3,0.2,0.3,0.3S66.2,3.1,66,3.1h-3.4c-0.2,0-0.3-0.2-0.3-0.3S62.4,2.4,62.6,2.4z
		 M55.8,2.4h3.4c0.2,0,0.3,0.2,0.3,0.3s-0.2,0.3-0.3,0.3h-3.4c-0.2,0-0.3-0.2-0.3-0.3S55.6,2.4,55.8,2.4z M49,2.4h3.4
		c0.2,0,0.3,0.2,0.3,0.3s-0.2,0.3-0.3,0.3H49c-0.2,0-0.3-0.2-0.3-0.3S48.8,2.4,49,2.4z M42.2,2.4h3.4c0.2,0,0.3,0.2,0.3,0.3
		s-0.2,0.3-0.3,0.3h-3.4c-0.2,0-0.3-0.2-0.3-0.3S42,2.4,42.2,2.4z M42.6,20v1.3h-6.8V9.1h1.6V20H42.6z M35.4,2.4h3.4
		c0.2,0,0.3,0.2,0.3,0.3S39,3.1,38.8,3.1h-3.4c-0.2,0-0.3-0.2-0.3-0.3S35.2,2.4,35.4,2.4z M28.5,2.4h3.4c0.2,0,0.3,0.2,0.3,0.3
		s-0.2,0.3-0.3,0.3h-3.4c-0.2,0-0.3-0.2-0.3-0.3S28.3,2.4,28.5,2.4z M21.7,2.4h3.4c0.2,0,0.3,0.2,0.3,0.3s-0.2,0.3-0.3,0.3h-3.4
		c-0.2,0-0.3-0.2-0.3-0.3S21.5,2.4,21.7,2.4z M8.3,4.5c1-0.7,2-1.2,3.1-1.5c0.2-0.1,0.4,0,0.4,0.2c0.1,0.2,0,0.4-0.2,0.4
		c-1.1,0.3-2,0.8-3,1.4c-0.1,0-0.1,0.1-0.2,0.1C8.4,5.1,8.3,5.1,8.2,5C8.1,4.8,8.1,4.6,8.3,4.5z M3.6,17.1
		C3.6,17.1,3.6,17.1,3.6,17.1c-0.2,0-0.3-0.1-0.4-0.3c0-0.1,0-0.3,0-0.4v-2.3c0-0.3,0-0.5,0-0.7c0-0.2,0.2-0.3,0.4-0.3
		C3.8,13,4,13.2,4,13.4c0,0.2,0,0.5,0,0.7v2.3c0,0.1,0,0.3,0,0.4C4,16.9,3.8,17.1,3.6,17.1z M6,23.4c-0.1,0-0.1,0.1-0.2,0.1
		c-0.1,0-0.2,0-0.3-0.1c-0.7-0.9-1.3-2-1.6-3.1c-0.1-0.2,0-0.4,0.2-0.4c0.2-0.1,0.4,0,0.4,0.2c0.4,1,0.9,2,1.5,2.9
		C6.2,23.1,6.2,23.3,6,23.4z M6.3,7.3c-0.7,0.9-1.2,1.8-1.6,2.9c-0.1,0.1-0.2,0.2-0.3,0.2c0,0-0.1,0-0.1,0C4,10.3,4,10.1,4,9.9
		c0.4-1.1,1-2.1,1.7-3c0.1-0.1,0.3-0.2,0.5-0.1C6.4,6.9,6.4,7.2,6.3,7.3z M11.3,27.4c0,0-0.1,0-0.1,0C10,27,9,26.5,8,25.8
		c-0.2-0.1-0.2-0.3-0.1-0.5c0.1-0.2,0.3-0.2,0.5-0.1c0.9,0.7,1.9,1.2,2.9,1.5c0.2,0.1,0.3,0.3,0.2,0.4
		C11.5,27.3,11.4,27.4,11.3,27.4z M9.8,15.5c0-2.2,1.8-4,4-4s4,1.8,4,4s-1.8,4-4,4S9.8,17.7,9.8,15.5z M18,28h-3.1
		c-0.1,0-0.2,0-0.3,0c-0.2,0-0.3-0.2-0.3-0.3c0-0.2,0.1-0.3,0.3-0.3c0.1,0,0.2,0,0.3,0H18c0.2,0,0.3,0.2,0.3,0.3
		C18.3,27.9,18.2,28,18,28z M18.3,3.1h-3.4c-0.2,0-0.4-0.2-0.4-0.3c0-0.2,0.1-0.3,0.3-0.3v0.3l0-0.3l3.4,0c0.2,0,0.3,0.2,0.3,0.3
		S18.5,3.1,18.3,3.1z M24.8,28h-3.4c-0.2,0-0.3-0.2-0.3-0.3c0-0.2,0.2-0.3,0.3-0.3h3.4c0.2,0,0.3,0.2,0.3,0.3
		C25.2,27.9,25,28,24.8,28z M31.6,28h-3.4c-0.2,0-0.3-0.2-0.3-0.3c0-0.2,0.2-0.3,0.3-0.3h3.4c0.2,0,0.3,0.2,0.3,0.3
		C32,27.9,31.8,28,31.6,28z M30.9,20.2c1,0,1.9-0.2,2.6-0.5l0.3,1.3c-0.6,0.3-1.7,0.6-3.2,0.6c-3.4,0-6-2.2-6-6.2
		c0-3.8,2.6-6.4,6.4-6.4c1.5,0,2.5,0.3,2.9,0.5l-0.4,1.3c-0.6-0.3-1.5-0.5-2.5-0.5c-2.9,0-4.8,1.8-4.8,5
		C26.2,18.3,27.9,20.2,30.9,20.2z M38.5,28H35c-0.2,0-0.3-0.2-0.3-0.3c0-0.2,0.2-0.3,0.3-0.3h3.4c0.2,0,0.3,0.2,0.3,0.3
		C38.8,27.9,38.6,28,38.5,28z M45.3,28h-3.4c-0.2,0-0.3-0.2-0.3-0.3c0-0.2,0.2-0.3,0.3-0.3h3.4c0.2,0,0.3,0.2,0.3,0.3
		C45.6,27.9,45.5,28,45.3,28z M52.1,28h-3.4c-0.2,0-0.3-0.2-0.3-0.3c0-0.2,0.2-0.3,0.3-0.3h3.4c0.2,0,0.3,0.2,0.3,0.3
		C52.4,27.9,52.3,28,52.1,28z M51.9,21.3l-1.3-3.8h-4.3L45,21.3h-1.6l4.2-12.2h1.9l4.2,12.2H51.9z M58.9,28h-3.4
		c-0.2,0-0.3-0.2-0.3-0.3c0-0.2,0.2-0.3,0.3-0.3h3.4c0.2,0,0.3,0.2,0.3,0.3C59.3,27.9,59.1,28,58.9,28z M60.9,18.4
		c-0.4-1.7-1-2.3-2.4-2.4H57v5.3h-1.6V9.3c0.8-0.2,1.9-0.3,3-0.3c1.7,0,2.8,0.3,3.5,1c0.6,0.5,1,1.4,1,2.3c0,1.6-1,2.7-2.3,3.1v0.1
		c0.9,0.3,1.5,1.2,1.8,2.5c0.4,1.7,0.7,2.9,0.9,3.4h-1.6C61.5,21,61.3,19.9,60.9,18.4z M65.7,28h-3.4c-0.2,0-0.3-0.2-0.3-0.3
		c0-0.2,0.2-0.3,0.3-0.3h3.4c0.2,0,0.3,0.2,0.3,0.3C66.1,27.9,65.9,28,65.7,28z M66.7,21.3h-1.6V9.1h1.6V21.3z M72.6,28h-3.4
		c-0.2,0-0.3-0.2-0.3-0.3c0-0.2,0.2-0.3,0.3-0.3h3.4c0.2,0,0.3,0.2,0.3,0.3C72.9,27.9,72.7,28,72.6,28z M72,21.5
		c-1.2,0-2.5-0.3-3.1-0.8l0.4-1.3c0.7,0.4,1.7,0.8,2.8,0.8c1.6,0,2.6-0.9,2.6-2.1c0-1.1-0.7-1.8-2.3-2.4c-2-0.7-3.2-1.7-3.2-3.5
		c0-1.9,1.6-3.3,4-3.3c1.3,0,2.2,0.3,2.7,0.6l-0.4,1.3c-0.4-0.2-1.2-0.6-2.3-0.6c-1.7,0-2.3,1-2.3,1.8c0,1.1,0.7,1.7,2.4,2.4
		c2.1,0.8,3.1,1.8,3.1,3.6C76.3,19.9,74.9,21.5,72,21.5z M79.4,28H76c-0.2,0-0.3-0.2-0.3-0.3c0-0.2,0.2-0.3,0.3-0.3h3.4
		c0.2,0,0.3,0.2,0.3,0.3C79.7,27.9,79.6,28,79.4,28z M77.8,20.7l0.4-1.3c0.7,0.4,1.7,0.8,2.8,0.8c1.6,0,2.6-0.9,2.6-2.1
		c0-1.1-0.7-1.8-2.3-2.4c-2-0.7-3.2-1.7-3.2-3.5c0-1.9,1.6-3.3,4-3.3c1.3,0,2.2,0.3,2.7,0.6l-0.4,1.3c-0.4-0.2-1.2-0.6-2.3-0.6
		c-1.7,0-2.3,1-2.3,1.8c0,1.1,0.7,1.7,2.4,2.4c2.1,0.8,3.1,1.8,3.1,3.6c0,1.9-1.4,3.5-4.3,3.5C79.7,21.5,78.5,21.2,77.8,20.7z
		 M86.2,28h-3.4c-0.2,0-0.3-0.2-0.3-0.3c0-0.2,0.2-0.3,0.3-0.3h3.4c0.2,0,0.3,0.2,0.3,0.3C86.5,27.9,86.4,28,86.2,28z M93,28h-3.4
		c-0.2,0-0.3-0.2-0.3-0.3c0-0.2,0.2-0.3,0.3-0.3H93c0.2,0,0.3,0.2,0.3,0.3C93.3,27.9,93.2,28,93,28z M93.7,17.5h-4.3l-1.3,3.8h-1.6
		l4.2-12.2h1.9l4.2,12.2H95L93.7,17.5z M99.8,28h-3.4c-0.2,0-0.3-0.2-0.3-0.3c0-0.2,0.2-0.3,0.3-0.3h3.4c0.2,0,0.3,0.2,0.3,0.3
		C100.2,27.9,100,28,99.8,28z M100.1,3.1h-3.4c-0.2,0-0.3-0.2-0.3-0.3s0.2-0.3,0.3-0.3h3.4c0.2,0,0.3,0.2,0.3,0.3
		S100.3,3.1,100.1,3.1z M106.7,28h-3.5c-0.2,0-0.3-0.2-0.3-0.3c0-0.2,0.2-0.3,0.3-0.3h3.4c0.2,0,0.4,0.2,0.4,0.3
		C107,27.9,106.9,28,106.7,28z M103.8,15.2c0-2.2,1.8-4,4-4c2.2,0,4,1.8,4,4s-1.8,4-4,4C105.6,19.2,103.8,17.4,103.8,15.2z
		 M113.3,25.9c-1,0.7-2,1.2-3.1,1.5c0,0-0.1,0-0.1,0c-0.1,0-0.3-0.1-0.3-0.2c-0.1-0.2,0-0.4,0.2-0.4c1.1-0.3,2-0.8,3-1.4
		c0.2-0.1,0.4-0.1,0.5,0.1C113.5,25.6,113.4,25.8,113.3,25.9z M113.6,5.1c-0.1,0.1-0.2,0.1-0.3,0.1c-0.1,0-0.1,0-0.2-0.1
		c-0.9-0.7-1.9-1.2-2.9-1.5c-0.2-0.1-0.3-0.3-0.2-0.4c0.1-0.2,0.3-0.3,0.4-0.2c1.1,0.4,2.2,0.9,3.1,1.6C113.7,4.8,113.7,5,113.6,5.1
		z M115.8,23.5c-0.1,0.1-0.2,0.1-0.3,0.1c-0.1,0-0.1,0-0.2-0.1c-0.1-0.1-0.2-0.3-0.1-0.5c0.7-0.9,1.2-1.8,1.6-2.9
		c0.1-0.2,0.3-0.3,0.4-0.2c0.2,0.1,0.3,0.3,0.2,0.4C117.1,21.6,116.6,22.6,115.8,23.5z M118.3,16.3c0,0.2,0,0.5,0,0.7
		c0,0.2-0.2,0.3-0.3,0.3c0,0,0,0,0,0c-0.2,0-0.3-0.2-0.3-0.4c0-0.2,0-0.5,0-0.7v-2.3c0-0.1,0-0.3,0-0.4c0-0.2,0.1-0.3,0.3-0.4
		c0.2,0,0.3,0.1,0.4,0.3c0,0.2,0,0.3,0,0.5V16.3z"/>
</g>
</svg>
