<?xml version="1.0" encoding="utf-8"?>
<!-- Generator: Adobe Illustrator 21.0.0, SVG Export Plug-In . SVG Version: 6.00 Build 0)  -->
<svg version="1.1" id="Layer_1" xmlns="http://www.w3.org/2000/svg" xmlns:xlink="http://www.w3.org/1999/xlink" x="0px" y="0px"
	 viewBox="0 0 26 21" style="enable-background:new 0 0 26 21;" xml:space="preserve">
<style type="text/css">
	.st0{fill:#5C3575;}
	.st1{fill:#79578E;}
</style>
<g>
	<path class="st0" d="M20.6,7.1H4.9c-0.7,0-1.3-0.7-1.3-1.5v0C3.6,4.7,4.2,4,4.9,4h15.7c0.7,0,1.3,0.7,1.3,1.5v0
		C21.9,6.4,21.3,7.1,20.6,7.1z"/>
	<path class="st0" d="M20.6,12H4.9c-0.7,0-1.3-0.7-1.3-1.5v0C3.6,9.7,4.2,9,4.9,9h15.7c0.7,0,1.3,0.7,1.3,1.5v0
		C21.9,11.3,21.3,12,20.6,12z"/>
	<path class="st0" d="M20.6,17H4.9c-0.7,0-1.3-0.7-1.3-1.5v0c0-0.8,0.6-1.5,1.3-1.5h15.7c0.7,0,1.3,0.7,1.3,1.5v0
		C21.9,16.3,21.3,17,20.6,17z"/>
</g>
<g>
	<path class="st1" d="M22.2,21H3.8c-1.9,0-3.5-1.6-3.5-3.5V3.6C0.3,1.6,1.9,0,3.8,0h18.4c1.9,0,3.5,1.6,3.5,3.5v13.9
		C25.7,19.4,24.1,21,22.2,21z M3.8,1C2.4,1,1.2,2.1,1.2,3.6v13.9c0,1.4,1.2,2.6,2.6,2.6h18.4c1.4,0,2.6-1.2,2.6-2.6V3.6
		c0-1.4-1.2-2.6-2.6-2.6H3.8z"/>
</g>
</svg>
